<svg width="128" height="24" viewBox="0 0 128 24" fill="none" xmlns="http://www.w3.org/2000/svg">
<path d="M2.49593 17.4077C2.91193 20.1597 5.02393 21.7597 8.35193 21.7597C11.5199 21.7597 13.6639 20.1277 13.6639 17.8877C13.6639 11.6797 0.575928 15.1997 0.575928 6.97569C0.575928 3.55169 3.74393 0.959686 8.06393 0.959686C12.4479 0.959686 15.4239 3.51969 15.9679 7.03969L13.4399 7.55169C13.0559 5.02369 11.0399 3.16769 8.03193 3.16769C5.15193 3.16769 3.13593 4.73569 3.13593 6.87969C3.13593 12.8317 16.2239 9.21569 16.2239 17.8237C16.2239 21.4717 12.7359 23.9997 8.28793 23.9997C3.74393 23.9997 0.511928 21.6637 -7.236e-05 17.9197L2.49593 17.4077ZM17.4647 9.66369V7.48769H21.1127V1.69569L23.5127 0.959686V7.48769H28.4407V9.66369H23.5127V18.1757C23.5127 20.5437 24.4407 21.5037 26.8087 21.5037H28.4407V23.6797H26.8087C22.9047 23.6797 21.1127 21.8877 21.1127 18.0797V9.66369H17.4647ZM30.5697 7.48769H32.9697V17.0557C32.9697 19.8717 35.0177 21.7597 37.7057 21.7597C40.3937 21.7597 42.4417 19.8717 42.4417 17.0557V7.48769H44.8417V17.0557C44.8417 21.1837 41.8017 23.9997 37.7057 23.9997C33.6097 23.9997 30.5697 21.1837 30.5697 17.0557V7.48769ZM47.3872 15.5837C47.3872 10.8157 50.6832 7.16769 55.0672 7.16769C58.2992 7.16769 60.8592 9.18369 61.9472 12.1917V-0.000312805H64.3472V23.6797H61.9472V18.9757C60.8592 21.9837 58.2992 23.9997 55.0672 23.9997C50.6832 23.9997 47.3872 20.3837 47.3872 15.5837ZM49.8512 15.5837C49.8512 19.1037 52.4752 21.7597 55.7392 21.7597C59.3552 21.7597 61.9472 19.1037 61.9472 15.5837C61.9472 12.0637 59.3552 9.40769 55.7392 9.40769C52.4752 9.40769 49.8512 12.0637 49.8512 15.5837ZM67.7934 23.6797V7.48769H70.1934V23.6797H67.7934ZM67.4414 2.68769C67.4414 1.79169 68.1134 1.11969 69.0094 1.11969C69.8734 1.11969 70.5774 1.79169 70.5774 2.68769C70.5774 3.51969 69.8734 4.22369 69.0094 4.22369C68.1134 4.22369 67.4414 3.51969 67.4414 2.68769ZM73.0134 15.5837C73.0134 10.8157 76.6934 7.16769 81.5254 7.16769C86.3574 7.16769 90.0374 10.8157 90.0374 15.5837C90.0374 20.3837 86.3574 23.9997 81.5254 23.9997C76.6934 23.9997 73.0134 20.3837 73.0134 15.5837ZM75.4774 15.5837C75.4774 19.1037 78.1014 21.7597 81.5254 21.7597C84.9814 21.7597 87.5734 19.1037 87.5734 15.5837C87.5734 12.0637 84.9814 9.40769 81.5254 9.40769C78.1014 9.40769 75.4774 12.0637 75.4774 15.5837ZM92.8572 23.6797V7.48769H95.2572V11.6477C96.1532 8.95969 98.3932 7.16769 101.241 7.16769C105.049 7.16769 107.769 10.1437 107.769 14.1437V23.6797H105.369V14.4317C105.369 11.5517 103.225 9.37569 100.473 9.37569C97.4332 9.37569 95.2572 11.5517 95.2572 14.4317V23.6797H92.8572ZM110.452 15.5837C110.452 10.8157 114.068 7.16769 118.804 7.16769C123.764 7.16769 127.476 11.1357 127.092 16.3197H112.852C113.204 19.5197 115.7 21.8557 118.996 21.8557C121.524 21.8557 123.572 20.5117 124.596 18.3997L126.644 19.2637C125.332 22.0477 122.548 23.9997 118.964 23.9997C114.132 23.9997 110.452 20.3837 110.452 15.5837ZM112.916 14.3357H124.66C124.18 11.4877 121.876 9.31169 118.804 9.31169C115.828 9.31169 113.46 11.4237 112.916 14.3357Z" fill="white"/>
</svg>
